<mxfile host="app.diagrams.net" modified="2023-04-15T19:26:09.674Z" agent="Mozilla/5.0 (Windows NT 10.0; Win64; x64; rv:109.0) Gecko/20100101 Firefox/112.0" etag="zMoYRngLCjq4IEBe-AJX" version="21.1.5" type="device">
  <diagram name="Page-1" id="SGkiAfrg871d9x9Z6HZG">
    <mxGraphModel dx="989" dy="539" grid="1" gridSize="10" guides="1" tooltips="1" connect="1" arrows="1" fold="1" page="1" pageScale="1" pageWidth="827" pageHeight="1169" math="0" shadow="0">
      <root>
        <mxCell id="0" />
        <mxCell id="1" parent="0" />
        <mxCell id="9-SXumL6C1ejnJ-Qdys8-1" value="index.js" style="rounded=0;whiteSpace=wrap;html=1;" vertex="1" parent="1">
          <mxGeometry x="170" y="160" width="120" height="60" as="geometry" />
        </mxCell>
        <mxCell id="9-SXumL6C1ejnJ-Qdys8-2" value="" style="endArrow=classic;html=1;rounded=0;exitX=1;exitY=0.5;exitDx=0;exitDy=0;" edge="1" parent="1" source="9-SXumL6C1ejnJ-Qdys8-1">
          <mxGeometry width="50" height="50" relative="1" as="geometry">
            <mxPoint x="410" y="220" as="sourcePoint" />
            <mxPoint x="450" y="190" as="targetPoint" />
          </mxGeometry>
        </mxCell>
        <mxCell id="9-SXumL6C1ejnJ-Qdys8-3" value="Font" style="rounded=0;whiteSpace=wrap;html=1;" vertex="1" parent="1">
          <mxGeometry x="450" y="160" width="120" height="60" as="geometry" />
        </mxCell>
        <mxCell id="9-SXumL6C1ejnJ-Qdys8-4" value="Create Object and init with glyph &quot;2&quot; using font Arial" style="text;html=1;strokeColor=none;fillColor=none;align=center;verticalAlign=middle;whiteSpace=wrap;rounded=0;" vertex="1" parent="1">
          <mxGeometry x="300" y="150" width="130" height="30" as="geometry" />
        </mxCell>
        <mxCell id="9-SXumL6C1ejnJ-Qdys8-6" value="" style="shape=image;verticalLabelPosition=bottom;labelBackgroundColor=default;verticalAlign=top;aspect=fixed;imageAspect=0;image=data:image/png,iVBORw0KGgoAAAANSUhEUgAAAVUAAAB9CAYAAAAShPDBAAAgAElEQVR4Xu1dXchmVfU/XpoQZJFQOXVhxXTR+IlfUzcajhA5eWEfNBcp04WjJTgKwqhYg4IfoJZzoWgXhWYXOkXgiAWSHyWmVhdK5cVkSRRlEFSX/fsd/uvp9653fe1zzjPv876eA9L0Pvvss/faa//22uvzuK7r/vPf/+ZnpsBMgZkCMwUmoMBxLaD6iU98ovvKV77SffzjH++OP/747sMf/vCaIfzxj3/s3nrrre7Xv/51d//993fPPPNMeYhf/epXu3vuuadv/7e//a177rnnuksuuaT8/gc/+MHue9/7Xj+2d7zjHf17xx2H6a1/0PbZZ5/tPvCBD3Rf+9rXunvvvbdv9Nvf/raf0ze+8Y3upptucr8t7XSDH/7wh4sx/+AHP+g+85nPrOvjd7/7XfeRj3zE7Ps///nf+SZjl79x3xFR0D76RoWgoM/+/fu7T37yk9373//+7t3vfvfiNawx/nvqqadCGskLTIef//zn3bnnnpsO4Q9/+EO/NvJgHBkvff3rX+9uvPHG/hXw344dO9Z9B2M5//zz+/n861//6l5//fXu1ltv7R599NFwTKDHq6++2vMV84v1ksUblfFzX/je0aNH13SffVcaf/Ob3+zOPPPMnn5MQ1m3X/ziF93VV1+drkHW4Dvf+U73pS99adHs85//fErHrE/5/XOf+1y3d+/ebtu2bT3/yX7G7638p79Z4e1HHnlkgQnVMXO7EqgC8K666qp1IJp9EJv7W9/6VmmADKrS709+8pPuwgsvzD7TgVAvvfTSms2PlzxQ/dnPftadc845nd7kWEwAMzbcrl273I28SqAqB93ZZ5+9Zn1wMIH+rQwC4AHNmZG9BcA3AGZyKFnthKb4De3f8573pACmAeW73/1ut2fPnvC9H//4x90FF1zQt7Hae2uGtb788stDQJCDoXJYWd+pjJ8nB2DEfuMnA1W8g3lU1w18MQZc9cFXPTCjRQQGQJjhQzxqD346dOhQ6XBHPy28jbXGIZ0duNb4QlAFWEFCgvTHDyQBMP6vfvWr7q9//Wv/EzYLpIMPfehDZntIbb///e9TgARIAIjlm5VTnk9NMPCBAwfcbwl4YzN97GMfW9dOADfaQLxxwOzyvPLKKwsgxjxOO+20xW8ihU8pqVY3UuVwYuldBo2xvvDCC92LL764WOPzzjuvO/XUU9cwftb/P//5z8VmB39EfGABiid5MjPxJtdSE/cJ3gKY8HwjsMc6HjlypCSlYjwWqEK6Ovnkk1PelwbYV3rPeaAqNzQICfLgey+//HKHdZEHB87pp5++RnoFEIJWlX3Jg+eDEvtIgDxb24gAfCiiHfrFXnzttdd64UAwxuK/7BZn8TZ4Cv9p3sZNSuZTOXCbQBWEe+ihhxYfAOPhdLvzzjvTRRAR+wtf+MJi82Ghd+7cmb6LQbLUKpsgWhBhZBDhhBNOCJkXhwBOQm8h+KrnqQF443jSsB6EXOMr0g6/613/tWSPDYIrOU5X0Po3v/lNf9UWBomATzMd3r/jjjtCCVRf/yJJhUEiU63IoSbXcwGXiM58XbYAUgBXjxGA+dOf/rQntzcuGU8F2DWoMuBUhAO8b1398XcPVJkX8b277rorlNxws7j22msXfFGdF/Ok0AR/gxAjaoBWiVz61ICagSTe0/znrZ/F21BteRKoPqSyW2sZVDWgViZpdY4BPvjgg4trWRVY+SSsfFsYKwMsucZ5UqpeZE+CWQVQlcMBY+aDh3WqTEe08zY2g151jdCf5hOPsXkDVKVakSRkw0bXX9anWuAuB5O16aNDlkG3CorMGxiLSJBVwGGpGmshelFr/qyvHrNulT3G+1tuHvJNUddU1DsaJ3jt8FuLbpZp5X2bAbuFRryOGa7oOa27/rN+cqj4qz/Ck882lbzbYqCpgCpLoNkYeDNZkvJGgyqDpQYRbahiprI2D0u82WFjHZwMmB5jMz0jBuV5AYR+9KMf9TpuPNGa8Rz1enGfFjDJWloSm/zWoi/UqqHbbrutlwqrKgA54DAeNgbrsTNNW8EI7fVNp3poWHuZD+VM96t5iIWD6sHDfTC99aGuaVSdI/of8+46UBUCeYAKcIJhgvUzYABIpGKwsK66fKpWCD81qDIzVE5DuTJaQLEsUK1a/3lDaKDUoIq22Nhvvvlmrx/VBh/eEEOYGgzoSc3M/NzGu8ozQMsGkPciUOL10Ho93hwtoJrp3q0DBn/ToAoVmEir2abmqz8Oh4suumhhfNRj54OkBfR53HyNzwQNeY/nJ/uI91bLWCqSpkdn+Tv62L17d6/uuuWWW9YYl3l+LeOSvrE3cLBBrwu1Z+aBIu+tAVXerNYG0/oYPWEwAiQRMcroDS8bpKLHaQFVuY5EUlAEkpkEphl6lUBVb4YWlyqtvxtqaGAw9NaWGTzTD/JBxu95oCS84gFvdP0X3tG8KmvcejXWoAoDrrh6ZYcWgwzWAjpycVvUNONDqiIkWDzOV+/K1Z0PKG4/lI+mONAj0GUDaUWQywC8+vsaUI2u0doqC+SHzxseMLsYFLCp5N9aHNdME1kdW0A1MwIxM1RPZH5Hn3IbDara+souQS2gypuqVW/EDKZ1t5YkymtvARVvTF4jy3LP346kdmnXaqiSbw5Rh2hQxe2NdZCRF4Aep9WXdTWtGkstUODbUSZJ821T7yM+/KoHEYPe0IPBA7oKT1ZBsrXdAlSja1LFIKGtcQK2LDLzxsmswLLYFbE9A1UeW8WbQIgoi65P8Y0GVX3NxObHdRBXFFizqwA5xDHfYzDenNYGYf6ypFkGeOYN5hnrvYpaqdWlSqTATLK0aGEBYUXatjwRPFDlg6S61lV1ReRzHEnHY6RejG3MwWDNjWlU1We3gqfXfgGqoqPJdIgRo7GvoOfelLk0yUClXcY0vOm8E5KvGS0nIjM1n+KrAKr6oOMFxho+8cQTaVQbA1JVuvAYiTecd9US/rB4g4FHqyGi96rudNw/z0HbDuQArlyHq6DKgOPtH/ku08YDVV63bH9kQMHfiHigAlIseWZCU6W/bOzR7yxIjaVR6zgWoCqMq8X6llORF9vTrVV1VZXTHZNl4nkLyWDfciKyMcAKZ205YTNpGn1VDVWyyABWzFmHCzMTRFFtU4KqBwA8FqanPtyiQ9RbB6ZZRU+vw1TxzvXXX78wQLCHCN9odAg0gA/vWo7zHh0yFYClolglUNW+qVaEG69Tth4tuNIKamg/5cHT+v0FqMqG1sDU4rhd2aRVUNUnmXZGB6MfPHiwu/TSS3uXlUiysMCqQiieD0sYqyCp8vhBK1iZOe+Bnp+l9qisV4VOaFORVFli4/FoVyq9YT29aWZYrY5d2lnhqFY0jrS3HMM9IIyEBC8IYVVAVRuiPN1r1S8a9GuVVJkW0bqK0DSVvaCVh3pBCwISE0NLEC2AVNFvVa//GJw2jrEYz+MCoO7bt8+NkqhIiRbxPNBZNVDlsWOuoAdcqHSooz4wj6VOFWPkzcm6cr5teOoZS9Lj8WdGlmxzeOGoHOF1ww039G6DaPv444/3kXn6aukBYaQCsK7+GG+lr7FX28oNg/dh9j0+XCN1QqshqRVUW0E744+W33tQ5QHw9bhVRGcmt9xzMp9Ba+DeGAQoASCf/exnQx+ytxuoCuOD3g8//PAiKkdL87zRxyjztaN0pGKxXNvYN9oLM+Ybk/QvG22o/pP5zcv54LlcMe08fbvWLXsqAM87wQM87f2RhWZHgJAZGPGuTp5SBZgsbLzF8wCqBWStsh5WfwlvaOm6Re1XnZ/XrgyqFVekzBc0A109yFlS/Z+etWpI0i5VrCcEfRkAhvoX6nWq+KnKOxYPVDw9+BsCVpX3KhvEC0flA90yvsn3WZURSX6WCiASNKK+jpWfqpYoK/TkNpG3DR+ULV45egzebZoPg8xwZs0LB+eXv/zlPrAA+y/yjOD314EqS5gVH0DpLHOZ4c1dcZPixbQSfMw6VZu9LT/VKIyQf6sCt/5yJaJK3mGeAqPjXQkWiTYW8xfGCQlcQliHbBieg9BA82UVVJluERBaKoDI2yDqawrVTSWiSsfOI/tV9nC0ZaQu0HkOWjJ58Rg8UB1Lo6ERWT2oeqclA1umS8mcf6vWfCFWtf3b0foPZkQIIxL46vSFFqhGuu5q7L8cirDqco7WSuy/J1kAjPBIMu8soosj8jAOSbaSvReBAM9f62WnBlWMQ0f/eV43aBuBqr6BtLgKou9q7H+Lm5TQWSdJifTdY2P/8U0PVMfE7+t3WyKy1ln/tR+dEDWKLtFE1APIomkspl81P1XeuBttqOLvaynNAlVub20+PsC8TD6WKubJJ59ckxi5KjGKZCh5MqETq+h0ZZxsiKu8F4Fq5I0SgaqO05eEz5nhh2mNtRBp21qXrC8+LFuSH1Wz0LU69DOdGSwj1SF/o2UO+JZO04e/ad3p0CxVrDrIBErNXwtQZUbnch+ZCGwlShZQ1ZPOfNcskb6iKsgMUVstoipybNag6sVrM62r+VSxAT71qU8tEoRwHxWdu7Rna3cl36slAQFYo7y42RUVv8uGjgSGKQ1V/E38W1L7VVJMepIS788h+VQjwGDVUMv6Ym4a8CNjGrfFu7jB4EDLkplzvmZZbw2qrflUsV+QHEqMX6PyqbIkoo0ZUp8HA8ci4HR917vetciigw//+9//XiSkllIe7DeJ97Ahq1nGlxX7XwFpzJNVH5qhNlpS1Vc/L5+qZqhIZ2r5Y1Yz/4NeLYYGy/hRuV5pwxq+W3nPA9iKe99ULlU8Br5S4+8eYGWSqvSpo8WmyPw/5uqMcen3M/7QYe4SYIE6YlnlCXwvKu2jvWDQXmf+B4iithdXUGiVnBfA/t9/9NXmeKPq0ysKicQCIpP2NddcY0owEdN4zI6/Twmq6C8KdbTGEflObjSoYrz6Og4mwYkvmf+ffvrp7uKLL15TeaFiCGip4wNGRmo0kTYlPDYqZyO0ZmDJXG94fSqh0BFfyW9Cv8wdK3L+x7tnnHHGGkGhAoQaBD19aKUvmQ+k7iuvvLJU30mqeEQ1qqYI89TJzzP+q0QI6rUF/hw+fDitt2WpCiI+AQZeccUV5XR/3NeaLFVeBJGcPLfffvsiagcLg4qnIqZj0FzPSqRVHQYoVUwzsboFVIX5qpbGinSzyvlUNTBkINJ6S8BaetVU0RfWVqqpWsxa8SLgDdeiFqqEQmf08MJRvffQHu40XIm1NUyV+9aeLR7YtIAqgytuhF411WoV3BaPDo9u2hhWNaZBskTVZhSzPPHEE9ccFOA9VGxGbmAkMW8tzIe+wdvbt283K7W2uk9Zc1+XpJolgUxkz5iXf9cnftb31KCKsYh0lKkAmOmPZeb/1th/OeyEAdkJWmo8AYSictstaxi1BbPefPPNfVFALb1N9Y25n5kCm4ECZjkVkSYxAZzI1Uqo3oR1cusMUCuZp/hbFUkV7avBB2xltkoqL/v6zxbtlsMFc7Ss/5uBEecxzhTYKhQwS1RrqVKUxnfffXeTuA0whcjPElQGqCAsXxsq7VvCFTPjhJfcwgJx/K0a/pZ5KPBBYuU4qFypZ1DdKttynsdmpoAJqjIh7eqAv8u1EhUU//GPfywsc/jtrLPO6t75zne6+oqoNKx8U7s0VBJlsFIdfraRoSRzo/FiwD1QhX5WnldeeWWh2MY8TjvttMVvEjWk9b4wmIhSXBKgsDV4llQ38/aax/52pEAIqiCI6Mq4hnwLoarWOa3UxjeqvnGehdaTIsVIovsXKTUzonkZc1iatA4kzIlB1XIt0t9uBdWWtZnbzhSYKTA9BVJQ5U8C+C644IIO0UVcPpfbADTgswpdbIt1jkFVPAsuueSS8ozFCs2+sR6oMgizRVLAMlM5TAWqWtcMmt16661rVCwzqJZZYG44U2AlKNAEqisx4nkQMwVmCswUWGEKzKC6woszD22mwEyBzUeBHlQ9/V80HehK8R/KVEeRGVnugArJWPeoI2B0eFvVwRjfjUo9cyKGTMfqzYHVBFlSBqgkEHMMP0/EtOORcMOqGqRlHdE3nKhRfTVaP4yD51H1QsB7OnJIq1XGlHPx3uW/WxFPEb+1jAcGRhhRkSlM1kvWrLIvLBtCZS9YbUTN1TJ+3U/2LvtQDxlnhW/E1mEFg/A+12q9alUAjBv78I033uhuueWWQdFSlbkPBlXuPIrY0VlohmQpZ4CzFoeJWs1aBBB76aWXFhtCb3j9ewaKmtjMBBkoR2HAslF37tyZ5k1oAVUebxQ3PRRUM0BFv9lGHgKAmgZVY2d1PK3hoGhvJTeeQXX96kbujpFXTguo8lcz20kFQM1D7r9/XCOpItoI+TKjB36nOKW5BlIEOhzyVk0Px9/nOHHLxYrrC+G9ykaqhElq63y1DrweTzRnnRwFY8fBgaADZB1HuCGeLApMg4KE81nrCCOj9FthslZJtQKoVRDz+LAiqcq7lbDkynh0vgW8gwMT9cDkgeQquRDkb9bmlTh3b37cDwQFGH+9R7LKLeOQkm+CB1oezWPZ3mE/bWu9hAetvc38GfG9DnnFfIbgUUaHdZJqRUyXTjWTecw7JgN3tSpiltOVCaETK0dhlTqF2a5du9JrAy9yBoY8Fk17LS1nPrutmwrrp9OnZXk9M/7QqeikWJ7FiK3j5T5aQLWqBojGow8/y1NDxgcp9LrrrlscXFFqQW+DDon7XwY9MwCxftcujpVbHkvuVtJxq3QNA74EGGX8CYEHh5wIhFlCnSHzHwWq+GBFZ6rTgLVkauf+M3Fdb2idFR/j1dJnRQfbkrC2BbAxnmzz8JwyiWvIptIbwGKyqqSq6X/55ZeHEXhDxitM3gKqeKdye4nG05q1qSXtorVxM744VodUK6hY/FTJBSG0t/gvqvas91AGqmivhZWppdXRoFqVJJlJMnCUheQrQSU9nCaWVnjr37MriYyjqgbQ1/4MBDVDWIvLaorsABgKUnrcen0qoNoKqJj70PFG7+o+pVQL3snWIxoPr0N1E46pVrtZQXUIH7BwZhmp+EZs+Z5X+FMfDpmdpvUw4fbHDFSZMNVUb/xORdKwJFEGzooe1SOmVgNYUvCQxWUJSJcyibweppZUmMn0+mTzGrqRlg2qAFGAKgJW8GRqgGg8Q0AO38S1VfSuXFEj27RDvrcMembj5N+1J05VeEIfchu0JE3hTU+NkPHn1Hslo8loUOXNmOkPM4OTHixfuzN9Ir9r6UGRHk8KxWWbyyMaj0cDz9DKkJaubseOHX1Smdtuu21h9KhIR2M2lZbGWSKImHYooB4LSRWgCpqwl0d0OEf049+qQkG2+aLfNxuoam+GiM5DrfVML6+CbeX6j34Yt1rAv7Kmo0BVb8TsesUbMLt6sx626ibFE9Y+omxNza7RHuH0fAXoGBiHlGDQRjapXSTjqC76GFAVqUq+aYXv4jdm2jGAeqxAFe5MesNXDKp6c2oViZQVWlau2s0Eqpo22aGz0aCq96t166yAp9dmEKhKDoALL7xwIUllUioGUM14PsVJohdaCJCBeUZMyxCFml1S22Zo//rqhHFIqZpqdvOxoOptZEtS1W5TVQnBu1FkdI9+9xLZMHjqqppWtv2Mfp5LFeooAUhQS8nySR0yt80Cqtow5VXjZRoAB0466aTFn+CBgv0j/tLcFpnv5IYJ4UIq8HJGuOr1H5hw2WWXrfF4qdwAW9dvEuf/qr4Tg6te6cW3dYg7ihDBKqvcotfyiMmLiM0k7hnZCe31h83MB5S0yyR/3V8GChlz8Lz4cNBM+973vnddPbIhEjqPNxvbWFDVRkrrEKjQDwIFpFOOotJjk4KJ999/f+p+V+GxKh9Uxh/xoBj1Wg7IsbcVjEdsHZZgxpV3vcChIZIv+PWhhx5KowmH8OVgUMWJhHouDzzwQFPi6orxia9rFQnYm7gG1aG6VN2/JQUPAX+ryqOUXsY3s0isZYKqp7PCmMS5XZzSxUewIqV4kmrktG2tLztyVyRV9JHVTGoBJSnXzVnRrHGCf6FKqVYRlj42g6Sqb1dDpT6xtVhqrih01aJVFQSlSOWePXuqr5TbrQNVK6IK0T1c7x0DOnTo0KDaR+wm5Tne8uk3VP/pXf+HSpOaomMZSo8PgPTFL36xj0vmkuAaqMCAiOB57bXXOp0ToAUULA7x3N4sSUDGtW3btu7IkSMLoG25tYwZb8VP1ZLwIjXA0PHgOvvpT3+6O+WUU/oqF1qKHSLFrzqo6gOqRbpl3mOVoGWMFsCN1GpMq+xw5iokGEerIFBB1iadqpb8qgYUPZAINFmJPCbaQVvqOaR26Lj1PKxCfRWiow0zgpbGdS4A+T3zexwKCjJmphkDkgZVzYja0FaVWMaMdyioRmqAMePRQLF3796OE7u38vIqg6oWCMbcJkU4GeL0b0mqFXDX+RsqEV/VfY12TaCKF8b4osnAous9A/dQow9LI7JYU2SdmgpUdUJuK+JEH2BgFtZlDtUJRszBh4Rn/fdOdvYBrqotxoDYUFCN1ABjxmPRVR+OLYf5qoLqEMOUps0QHajuY6xLVUt+jhZAHQSqWsqqbiA9MDZEsQKaCd4Szir9a6lJwEFLKEPctKYCVd680XXZ8giQMVhXpTGgwECvo9cq1tUh9B0z3jGgChpaagCvTxxwu3fv7mP5W4AR3+HDsUWiGwKq/K1W6YsPxUiY0YapSi6MVQRVjInnUpFwq+DaLKmiY8tnr9Wqzgws10X2TW1hQJmsHpdmDu1nOpaQQ6//LWCiXZcwV482Lf1qBolyOFRA1ZIAM/qOGe9YULXUAJiDZQHnw62VL/mwagG6IaCqb0BWeXUPGDzVD7fXh3zVK0F/U1yqML4bb7yx/xl7FS5p/IiXhWXnGeJSpcfBPNSyNhm4DgJVdDpWDWABKPc5ZMEqiU+0G8+Q7whRpwDVyibl1In4tme8GwpSOuGNpkkVVLUEiP8f0XfoeNHvWFC1DgF2j+MDQSczb5HOmKdbjHhDQBVzYp6sRiFWEh5pw9RQ1RwDUjUzVaajb+FP/v5KSaoyMAaxIS5FcuWQ66b016rU15s5G4u2Flay6Fin01BQ9VQU1jesBNaeXnMISFXStLUwre4vWosh4xUaTQGq1iEg/Wspm2lQtRjrEOSWA3woqPI1vjpOfseS2KY0TDGPyxpa+50BNzscWvhTvp8lEcqk0ej3wZKqddK3nMR4XxulJHIiuzbqCelTNDvZWsPqPAIOBVX0xweSuFM988wzaz4FKefSSy9dl/QYjawN0wJS2PD79+9fE13iuf60Mq1Ws3hXq5bx6jWYClS1GsADVc1joNVjjz3WHThwYJ0PqtAWqQ/Fp7f1ejkUVPU4wSd33HGHW33gqquu6t3A5NHAbxmmrGi0ISBUKZ9SyU7Xyp863+0QIW5poIqOtc6v1a9U/NDYqTw7mXhCVuZ8RCdlj7auZ0A8paSKvrQEivnj+vmXv/ylg+GOa1WhPdQEqAeGTSCPBmMGmtYM6OjTM8K0Mi360moW67q4CqBqCQf4m3WwW2GqaMu0tqoqVCVG5rGhoGrRHn/TFQq0v6a3/hZIR1UIvH0H/2u9L4eWT9HfaPFTtSozDNn7SwVVDWqtJzJbYTHQVuf8IdcyIcgQNyAm5hhJVYD1vvvuC0Me9Qbnja0lSw1k2cEivwMU9u3b50bGDQFV9K1dZ/SBuyqgirFqPvRuS5UwVaY7+BnGr2MRUcXfBZ+wpBzxAvjorrvuMoN5pqqlpXEhK58SpQKMQLXK83LQLCNUddT1XyagjVYtSmwv81OFOLwph0St6Ktf64EwFlQxR4zh4MGD3dlnn73mGiZhwFbVR9Dszjvv7K/vnGylBVSlquTzzz+fRsYNBVWtZtFhwqsEqpXcAMyTEqaK6Ckt9QltW0O4p5JUpR9RQ1hVX7EWiMxDNV3wkgf6ywLVqYxU1uEdYUd13hX88dr0oDqmg/ndmQIzBWYKzBT4HwVmUJ25YabATIGZAhNSYHCWKj0GzhTfcg1FP3Jdgh5rTD5K/m7VfQXXkCuuuKJPhsHZl15++eU+q1FFF+Zd4TGvJ598spxejNUJ2RpnHhIYE2i5ffv2NddT6Phw5bv66qvNT7SuHXcS0Rw6PlxDNZ2h5rj++uvLKfLQz0UXXbRmTq10xpit8eBqiL5Qot3jwzH0wXdln7BbXcWOwO0jLxtvXrjqP/jgg+a8hqp3eO2nUIVlPM+/s/rA2wuyB04//fRFZVtZY+E5GTer/vTfLIyI9tFKgCoTq+IMbxG/tQoB+tDGCd1vRU+L72bGpkqy6VbdVQSq2IDXXnut6YolcwQTIfOYPjTGgIYFqmDsp556ap3eUdM6C/+00iTqPjKDG9qLPhohp9HjGZjG0IdBFf/m8kJZSDZ72VjeMdV5Weu+FUHV8u/m9ZZ8quJN44EqhCL2uNE8Y9FzHahmqbM8RuQw1aprD/qyXFBagVX70qHfTFLVRi74HCJMDqFzSKknWa2i3AZWuC4WAYRGP7B2ixEjC0jQBQAztxVPAtaBBaAlQA3uK8iizn6vXuVKSIKVh9fOoxP740oOSwlHlIzv8i0PWLWHCb6FAxESGx7uJzoIdT96PLDSc2YpKz+E5htIgC0P7xM+1DPjrgCwNaax89pqoKoBVW4y+F/sR8njwOtmgSq7eWKvYO2tfaQN3JNY/zVTtVp1wRRckqQCivxNS+KMQJXD8rzE1ZXkFFH6PhlfFFPPc8gkkcrG1ZvLAilt5c4OH++7+iCz+tHFEHfu3LlOMuZDwDt4KlFCvJEqeXo931G9IfWNYMp48Wp5IaajtaYVHtPrxf1sNVBt3ZfgcQtUo8M+oudKgKoMvkIMvcm9a3MEFsyEkeMvj0f7WGpgjpJXcICDVxJCJLpKBIkHdLzhI8lnSLlw/c1K3DSDYUTnaD2YzllGNJb2Nfjo+PYowCRKTDIlqKPXrZEAABoTSURBVIKmlfJCHM6ti9Sxv2dW2YLnxRLvVgJVPqgyF0nOqeGBanRr9krIrxSo8mavhI6xZAbxHNdRuW5HoCogl30jMg5gk2LjoqwHyspEUVyV6BhLYV6RTrmNMEk2L7wj9ehBN1x5W54sWbZ1SLIhs+Vm05IhigFGX5NbU/B5YDc1qPL8rIOQ52Rt8KoBS2jOQCJrspVAlW+tWaSUdxttSUrDfCKC10qBqpY6o40IJtEnOBtEPFBtrX8lBB6TfzUDVT7xMqu+B37cR2sOhhZA1SqGKCw5m7d8N6rBXr1VZEAuXgMIU6xE0XhjnxpUo4MAc+KN76lYoAPHvEBHXWJHry3Pa5mgqi3muGWg6mzkecJjtSz32IPilYN53nPPPf0rXsLqzPjHtxdLUq0IJ8wPcjvatKDKzCYnUmUTs2RQATA+iTKQ98CJpQNrofVc0J7dvIQhPZcYfHds2sQqsDIAZuBdUTNokNbX8sqa8thb27eu2dSgysIB/q0PqTGZ2/TcGMDx27JAFeDSajHnsWaWe4Drt7/97UUuVt7Hra5dFZeqaG9YeLJSoMoDjPQhbHVnC3ZlQ/GmyK4HICb32ZLoRRaiYkRgoBILpbeQnqsP9yHjbPWvy4BV6ze1fs96X9cKu/XWWxehtbpWkHX9ZfpVjGoVHsjmGak3lgGqXoVhpndFAMjmxfvL2zdDv2P5WEeeJ97+tiz3MGJD0IBqD54eCA1my/xGgqrlL7syoKqJWameqBXzlQ3F4LPMTYqNWXWp0olHcBIfPnx44Zp13nnnpa4+3Aek4cw3dEiij4pxypKO4EgPnbMEV+g2UXXeqvFN+uTNXTk09Vg0H+o+lgGqGIOl52cQHHKg89y0+59X2HEqUPU8T5599tmFI77VpqLf1ZnxNhJULU+nSZz/NTi1uFRJeV/2n4x8OqNrbgVUK23GXCd1ln705TnaW0DgWRszVx+el0i7oCMYEEyHR/thZtZRvSmhD8OT+dzye6IbO//8891sXHKdQ/kMC+QgqeDJdFxWscRMx8jf00ETlnpjqPN/BlZWhWHhpZZ1sqRV7f6j/ZMrQJZJwXyYRXON3Miqlvso+Y0WLqKIyEynWqG7dfNdOqhmi2H97kkYmTGmApiVNmNA1boGSa5USK56kSXiCF4Eb731VhfV+qoW58P4PT/MyL8uWiuW8DOAkH7AtI8//vgCTDGmp59+elGLSIO8d6BUXO0sPVx1nBivBuRKHbAW3s7Gonkb2cnkEMuizaJx6PW2+GJqUM2kas+zIjJY6jl6/Di19T8zdllzmSSiCsW7hqagY2JBEoG04MVds9LeKoFSAcxKmzGgCklaIoYuuOCCjiW0zI+wskm9Am1ahRAxtudfF32fQyqzTSP98Fg9kNLhp5baRwOmFQkFWsthIiGoFfUO3tEhzpFv4tCIqkoOCHaJe+KJJzpUwhjjt6wB1eO/KUG14iXj2TVa7Bde7H9LoUV9uxOBhgWjSA3pfWvpOtUs7BW/I9v9ww8/7CZJBuPzCeS58VQA81jpVAVYNGNXrhRDJEaeeyVBh+Vf5323YsXX71Z9WTWoeSCSWYQllnvbtm2LiqhVUGWVTRYivSydKuigQ5VxOGTj8dZM5wKIqg9MCaoV/vbUg5YPrTe/yIhXmY/Wy3rO/17Ys76FMa8tHVSza09FOqtkpEE/FVBtzWTVcnpWGABtqpKe1Z/HkBVG4v5aDheOjKpeRVuuchgXf8MDQy/r0C9/+ctOknm3ri+DfysgVNpX+Fva6Kgv/L21PBHewX657bbb1mRds0KE5butvGPNqSV4xePhoe5QGmOy2H+d5QzzicJU8TuXyc7UVpsCVIcaB2TxeZNuhJ9qFfArG9BjyBbjIL7TAj4t2ZSsjVqRGC0n6go9dBsG54pfcauL3TIlVc0nmWHOoo+lG7Z0+fzuqoBqi6TKPreW4Fa52SCJkhQb5RsBgzuMlaJasuhtGTPfdqC6ERFVGaiCQWClxobN8rd6EUaer6MHTFX/T6ZXRa2w0aAaZXOyaGFZ3SMwXzao6grDe/bsKZ8tQ70fjjWoerckHkcmoVdur9nN5rTTTjOjsrTELP7ekrlO52TVC7QpQBXXIhAge6677rqFDxwUzGIw0mA1Rew/JF7UlUJ4oFc0jcfrGZha0r+hPz7NWY3QkuBF9xNZOFv9RGXOre95139IHPAGgeN3FsHVGgevD7tWyXbq6z/Gw8DYoibSgFpV02gaDFXXMRANsZjr21M2/tYbp4UdHjC3qiE2JahmYNoqHVWltOjkrEZ/YWyRK1RLEhkvIsaaf+T43iJ9VvTUGcNm11gdqaUzeQmTZ/1Mof/OeG3Zkqocmi0GKp1DNwMkPccpJVX0PcRijvdavFJYuOCDAHvk4osv7t0TQYeokognMc+gShxSBQC9iVHKl13CtMRgSSSV3KXCKEjgIdFEFsNVrM862Yx1PdLgbc1L65oyfSfrUyuSHG/Yin+p9o6wJCU+BL0Ny20yiTYDzuj3ZYJq9bDn8VX5MJrT1KDqWcwrvFfhmSiiqupSFQH45KCauUB5i/PGG28s0t+1Gk3GMLm3iTOw4FOKM8m3ZP7XVy7OMI5+UK7knHPOWQzRkz40YGb9RJKITtgdWS0r4FOVEq01tEpUw/9S1DKVTPvoV/fDMeU6k3vkOmSNsRVQpgRVrDtUVqjygOAPxLTjaVEraCMu3q0+4pfJNGjZ/7znhU84Jh/85UXzebynDwkO2cZaW5Z7fRBH1SasfamxYnJQrS6IbseMsBlAFeOfokYVgBUSoRfXLnTKAKxSV0p8Mb2iffKtirdENh70VT31I57R/pJeWwBlZKXOrLkCRlbdrSmltClBVQcdYJxZIm49FyssurqHrSxV1Xc1+LNLFcC21WLO363wDPhFBBYNqvr2480JtLbsITOoEsWq138m8jKrqeKURQJr8aHMGBbMcPDgwd4AJsm28U5rP3gH0t3NN9/cffSjH11XSTKqFqppIzkrWyz/1jyHVi/lvixrbiUt4qqCKsals3ghZd4zzzyTscri95YKvLrTZYEqJGBtMZdQ7SrvYay6cq70cffdd3cnnXSSabnnOQrPwZgstwA5DF544YXuwIEDprfNJKBaXsG54UyBmQIzBWYKhBToXapmGs0UmCkwU2CmwDQUWAeqnsPsc88914v0cE4X8XhMHkM9/LEid4UcVV0vrg26jG1LooiKoYH1aXINE/1Yq0sM5g5XEjyWs7g2hLFi3qJ79Deem1f+Rocsoh2SC8N5WnTPYoxj/bBXgsOqeMB+rZGjOM+lUrfMW2eoU/bv399t3769901mHTrmAj1iVc0j8+RrqTiUt16P4ct6yimnLMZT6ac1UMSro6WNSpGPK3/TSh2pEwJV9nO2zyyVU6ZK07yLdb/99tt7dZyoELisixWsswZUM2MAFmzfvn19OWk8WxFUPSNPtoCgh+jHshrums4CqmI4a9FfslLfY+qNBFVkZ4pKa4hHRGY01AdNVjAP66HnXaGPtXbZ2AQAPMOH/C5pHllfboFHZkSsGHLQb2RhP3r0aP/pzPeX+Rr/1o79FVe/KEG2zH9KUNWZzywae0ZfBtWMdz3XsQWoRkkIzjrrrN6hFkgNlJbUalsRVHWyXTAmnj//+c9hFi2ORY4kJ53sAn0LqLITd9UntCJ9bxSoinuNlSybrcM4RCDFcko/y7WNy7ewr7F3CFnuRla+WqsUjWxEneoPPpLPP/98H9mGh/cG/r+XwNtKw8fuZaAHV0eIUiUeOXJkjWQaual5/VR9Yit0ZvpZkj4Dpgf0wB8Yn6IHtJZYfbSzAly09KzTROLGxG6Oeq9armG6LIxgoXcoLUA1c7q13BS2GqiOcSGS64138oN+uMZariYMoLKo1VIgywBVi7FbshDxweSd5hrwPP/SKENWVpTRkn6sw8orrscb1JuHJWlZ6hsGHg/oKgnEs32K8VRy1PIBXs0f66mldCZ+lvZ5nSsqNA9UNW0qQSCem55XmhrfrvCunq/eqz2otpQxePXVVxen5FYG1dYYaDn5NYOKjjqq0cQbXUAkuwJaklTleov3Mp3qlKDqjUn7aHr6Tt78uq8sfaFsEJGE9dwFgCTDvqa55B2AYz7SC2INvScaZ0tehqgtH/rZtZ3p6+WolWi5KBG26PmzZNk6mm/Xrl3d+973voWqsNX/VtO5ephUS/54Iej6puqV44lyD/Sg2pL70itjMNbQNPb98N7w/z9mUl0l8433HWHQqFCcvAtwQDSRPAyqsljZptksoFoxIkUbNloT/k0DIv8GwBZ/Wy3h8ObIMiNFPBaNs6L/5b69HAYt+xT9ZTlqs9IjDMyVXAS8v3CQ4TASVeEQ46vQhFUVUcRciwHOyxHAOBQltInWuwfVKVJuaVD0rGZwhkdNe201y0BVi/+VRdabwAPVTEmeGamYwFqRryNwpPSMN1+WVKJFzaKmWPJblk7VA5lsLeW9ikohO+i8VH8CGHI4icSl9a8CPJkkpucqmdOg54P1nT0btETN4MbZ0zz6sd6PD+nWhDGZEJGBZqXahp4Dq2TktxbDq+5Pew1AAvaCI7KbS0XwqvJuE6hmBhIvOSwPBqdSZPG19FPRZKYAVBB0WaAaWe1xImLTIQqEk7ZE8614EbSAKq8Z6GDpcPnvVZeqVQBVlmL4QBMayuEr7Rg8mS7ZIS3uOSx9efPXoJod2tFm575ak9tkBxK+K3SyDhWumQXDYeXRap0xddkqngWehJ/l/hjLu5OCKgaT+anKgHXiC5zA4uulr7ceyEwFqBGoiuWRrYuciCSz/FdAUC9iBKoV1yqRlFiq4THrHLLe98b4qY5lzCkkVZZkRKpjsJRrJ7eTaz7rQaMKvvfdd59bXlv8QlFnTVQ6ywLVqhQl61IBVVZN8BWdaZO5CDIfaCPOUFDV3kgV9cGQMPWWfcltjzmo4tS74YYb1uUyjKxmFsNMCagRqLYwoXUNFOV4S1LhaIPwgmU3h+yKJ+PdqqBqSZsMCCK9slpFQIKlXIvOlnsODFavvfZan0mKD65ok7Ve273DahmSKtOPr+lMmxa+1mn5MJfsFqDnO3TfryyoZsp6Fu89639kOfesZtam5wVqXRiLMTMAqpzsut/MlWqoNOcZvnR/2ZykvbchN7ukivnJZpLbj0j62oVH61U9PavQTOvDowxYkfV/is3O88S/K0BX5Q3W+cohJPyS2ROYH3UF3eOPP34h4VddBPU8W75f9b319iTfwvHvSKBJJdUW6yRfozxQHWI105t7akBdlqTa6gKVSY7ye7Xf6saRja2ZdCuAKvMveA/lzmF11h4BrFdFukaJDPSuli1g6HnFaL6ruspZG39q6798g8EQtPj73//ewaCKp3LtRjst1UOniUe8LrygCD1PnmOr6oD5IKOzCIfYD7h5iOtUVcWSgmqLH52X1HfIYLwKhpwrEUTPat5EJw//lgHQEEm1KlHqMWb0qkrA2Zzku1sZVPXtSXSbWjpigYB5zOOvKqhmMfC60gRHhlm8i+8iL8Cbb77Zg5sYOKf2U+VvCx9DBQAARNRRFQjRD0u7DGgMkpkXgLb0W5Uror2uceyMM85wC2nyvmGdcbYv5fspqKJhRTKMyhgMGUxWa1smkC3GRoFqi+6zFVSHuFZFapetDKqgLTupS7ITDZZMU1mP6HrJQFGNgkK/1jpwX5GvJe8xy1e56gQv0ro3Hs2PLMXjN9CwqnJjSVdLl1n0kYxDew20qAt4LhUcYyOYPjiG4Jhe70WYqlYOt5YxGDKYCFSxoOz7N5TIy5RUK1Z6D/Ar9Kp4FVQlVWE2fUCNuf5rlxfRQVXmBrpMYf0X+uqkJ15IpM6UXy1Sh++AdqA3+oCL0Xnnndede+65PQBxTgyvptlLL7200DHqfAjwPNHJyS23IG0V17HtukRNVSdpVSGo7LlKshQGXSuySvfBZVgygUl7uVjeBzo3AoeKa/VGlXdLkioGb8X386RAkMcee2yR1GBImKoXX8+TkRNSL0Z2baosgOf2gndbr/8V0BsDqhXQroKqtNOn6lYBVV1R1NOp6dtWZvDJ/IGxvhJjLiHcHqBXs1R53jMs1d15552LaCWPx0ADK9DGa88HTjWir5IsBd9jSV0DfYXG3pitgyfDMfSVZalCm1GGKj1gXcYABIYrCRYICl1RPi8LVK1YeGFeSAbWg8WFtRFF1KxMRHgnA6AWUK1ez8eAahSpJf1mc9LttiqoYp7s4eBJWay3qyb4wDqA9zlvKd7FfxzUUc3xapX5wCaHDjUq82HtU51P1RpXJmzI7y2GHrzD7TP9q9Y7e0lXqmOVdpGT/5h8qpODajQxD3iGiM3e9Z9BtXK9wHjl+9FGyUodt4Bqa4y+pmmVXpkhbCNBVQN25lPbumHm9jMFNiMFmsupHGtQ1Sei52bBUop3pePrjXXCtYBq1eVpjKSKd73sV9Jvy5itsYy5/kt/cgWcQXUzQsA85qkpsClAFZPmRA2WvizKZIOrB3wSJTmtlzyjBaAEjCrK/CqYWe0y16qWMVfHEQGt1ofJte7111/vduzYMTV/zv3NFNh0FNg0oJrl37SslwAAPLp8hWfxrQLUkAz9Q6//HEZoRbtp38VDhw711mkvhBLjmCqhCh9WQxNYbLodMw94pkBCgU0DqpgH6w8tNQAbIbx5R5EWVVCtWOUzzqvqVFlK9w4DK90au4p4rk/oe8z1X6yshw8f7riAXzb3+feZAluZApsKVLUPmgWQVh7XSoVJLHIVVMdUPRVmagFVOUw8n0OZM/v1Mm2WBapbeWPMc5spMJQCzaA69EPzezMFZgrMFHg7UGAG1bfDKs9znCkwU+CYUWANqOJ6ffDgwXXhcuJQ/Mgjj6zLkcp6uSwkLnPHgmM62sBSL1dZXN2fe+655iwyFQpCB7t79+7u5JNP7pvj20j6rLP0V/qqtqmEZkZ9VbOx6yt/dXzSznOPkvFHhimdMg/BGF4knednG6ksLBUPeA+O8/fff79bbgN9csLxSiJkVtNYNMx8rcdEC+nvzcbAVi7emPYLUNUM5g3HSrJQBYoKqJ5++unrwu8yxm0hHQ6O/fv39+ApVQgEQPTGh7Hn3nvvbek+bVulldWRBppoky0LVMUfeKNAtcKn4Jcnn3yyQygnaqHhnWuuuaZ3qdPjZjpZUUEzqKYsPTdQFOhBVRuAuAwK2uskDdoKXQWKDFTB1EhOgU0BaRVSGb4NCVbArcXAw3PFHNGHVSraAlV5VxLLTGXdrtLK4lQOg8TvUfYuKa88lOMl1FdqbF1//fW9BCiO/sgAhQc03b59+5rQ4GVKqmPqPWG81mHg5QhG+7GgOpT+83ublwI9qDJTeW477Afq1Zcae/0HGavx2FWSW5ZxeReHh77qi0pASutKW8wZ6g+Rfqrf1+2GgirnGgCdxfc2SwgydJzyHrtr4XADgOLbCHq48sorF9I+j2MKUJXvS19y8EmuUST2OXDgQC+JgjaXXXZZr8rR68bzr5Q3zmLYx9Jzfn/rU6AHVd4E0bWOk5ZwaYkqUGSSKshdzTSeLQ1f+bgtNg0kPJG8vH4wVlSE1YEDeB9+qvhdl9nOxsSST3YA6b7EN1ZSpx05cqSX6rMM55UxRW0kmQh03NYj9JDM6WhjSX6tOlX5lg6BBR1uueUWV2+Kdd+7d2936qmnLgB/6tvGWJrO729tCqwDVQAOrtwtgDElqI6VvKYGQ5F0JcRV2KEKzlNIqpzhxyq5PDYlYoXFNR0ioGIA5UNS+IQzZXFbfaDPIbCVlZnbrBoFelDVGdEBGIjlRpXQ73//+65UIJOZElSHJuXIru1jdaKg0c0337xISswLqdUIUxuJrPLKrI6ZSrqPmJOBHaoQGPmi71peAqJK4Pe8FIpzCOyqQcU8nioFFtb/KMRT8qk+8MADi3o5/IGNBlULxMQCPBZMNSGHGryqC4J2+mDx3KgEpKyEwlMCOyf9FSMmaifh8PXqCMnYrNy4WiIV/uG2cwhsC8fMbVeJAmv8VDP9GQaODbxv37414LpqoBrVapqK+FYWdwGFyPIuOlpJSmyNh5NsMzhqIyInCY5chYbMmQFOdO5sxNFloYd8Y35npsBWpIAZUSW+nGeeeWZvqBF/TtYn7tq1a6EWWDVQFfBH0ACs9XAFmupBhioY6TjOXvquqC6qtJI+OaWhLmTHGay0e9VULlUYB77z4IMPdn/605+6PXv29EPDtR1/42qfU9F47memwGamQClMFRsIDvPs48lWZwGKrK6N5w841PeUCQ+wgwXaslKLUWWoO5ToU9mizAcMgC+ySPM4W0CV9Y2eTyqD7lgj32Zm5HnsMwVWhQI9qGJjQho98cQT+yqR3sN5RIdEOXHFyyH1rSpEkwPg/PPPXydh433RCd50001hdyKte76PQ3W2LaDKrm5eMuxqZq0K7eY2MwVmCoynQA+qHKUSSTueryE7iOsrKg+Ry5ksC1S19IqrunaHQhsxvmkJU6731jtSVrgqlVrL0wKqEhLqVSqQ/rnm/QknnDCeK+YeZgrMFBhMgXURVVHUiVc4j/9u5QbA6HRp4GMBqkIVSRRz8cUXm9JrFKaKPnD1hnvZFJ4ELaA6eFXnF2cKzBTYMAosdKosbUKKe+KJJ7oXX3yxHxiMVRdddNEiukhn3dfuOwAhXF0hQZ111lmdgBkAW8IIh4LqWP2rZKJiSdQCVcmONbWhawbVDeP1+cMzBY4JBRagyr6I0ZcBjDBaPfroo2uaZaVMRAI+evRo/95GgaolvYoeWVzKcCBkOtdjsjrzR2YKzBTYdBRYZ/0HOEKvesopp/Sx5Xg4wiq6AosUyG5YkudSXHGsUMUW6bOl7aZbjXnAMwVmCmx6CpRcqjb9LOcJzBSYKTBT4BhR4P8AxIJXOeF9LvMAAAAASUVORK5CYII=;" vertex="1" parent="1">
          <mxGeometry x="440" y="320" width="151" height="55.35" as="geometry" />
        </mxCell>
        <mxCell id="9-SXumL6C1ejnJ-Qdys8-7" value="Arial.json" style="shape=note;whiteSpace=wrap;html=1;backgroundOutline=1;darkOpacity=0.05;" vertex="1" parent="1">
          <mxGeometry x="470" y="10" width="80" height="100" as="geometry" />
        </mxCell>
        <mxCell id="9-SXumL6C1ejnJ-Qdys8-8" value="" style="endArrow=classic;html=1;rounded=0;exitX=0.439;exitY=-0.05;exitDx=0;exitDy=0;exitPerimeter=0;entryX=0.409;entryY=0.99;entryDx=0;entryDy=0;entryPerimeter=0;" edge="1" parent="1" source="9-SXumL6C1ejnJ-Qdys8-3" target="9-SXumL6C1ejnJ-Qdys8-7">
          <mxGeometry width="50" height="50" relative="1" as="geometry">
            <mxPoint x="650" y="110" as="sourcePoint" />
            <mxPoint x="700" y="60" as="targetPoint" />
          </mxGeometry>
        </mxCell>
        <mxCell id="9-SXumL6C1ejnJ-Qdys8-9" value="Get position of &quot;2&quot;" style="text;html=1;strokeColor=none;fillColor=none;align=center;verticalAlign=middle;whiteSpace=wrap;rounded=0;" vertex="1" parent="1">
          <mxGeometry x="510" y="120" width="120" height="30" as="geometry" />
        </mxCell>
        <mxCell id="9-SXumL6C1ejnJ-Qdys8-11" value="Cutout Texture of &quot;2&quot; at position gotten" style="text;html=1;strokeColor=none;fillColor=none;align=center;verticalAlign=middle;whiteSpace=wrap;rounded=0;" vertex="1" parent="1">
          <mxGeometry x="471" y="260" width="99" height="30" as="geometry" />
        </mxCell>
        <mxCell id="9-SXumL6C1ejnJ-Qdys8-12" value="" style="endArrow=classic;html=1;rounded=0;exitX=0.135;exitY=1.026;exitDx=0;exitDy=0;exitPerimeter=0;entryX=0.177;entryY=-0.054;entryDx=0;entryDy=0;entryPerimeter=0;" edge="1" parent="1" source="9-SXumL6C1ejnJ-Qdys8-3" target="9-SXumL6C1ejnJ-Qdys8-6">
          <mxGeometry width="50" height="50" relative="1" as="geometry">
            <mxPoint x="410" y="290" as="sourcePoint" />
            <mxPoint x="460" y="240" as="targetPoint" />
          </mxGeometry>
        </mxCell>
        <mxCell id="9-SXumL6C1ejnJ-Qdys8-13" value="Model" style="rounded=0;whiteSpace=wrap;html=1;" vertex="1" parent="1">
          <mxGeometry x="170" y="315.35" width="120" height="60" as="geometry" />
        </mxCell>
        <mxCell id="9-SXumL6C1ejnJ-Qdys8-14" value="" style="endArrow=classic;html=1;rounded=0;exitX=0;exitY=0.75;exitDx=0;exitDy=0;entryX=1;entryY=0.75;entryDx=0;entryDy=0;" edge="1" parent="1" source="9-SXumL6C1ejnJ-Qdys8-3" target="9-SXumL6C1ejnJ-Qdys8-1">
          <mxGeometry width="50" height="50" relative="1" as="geometry">
            <mxPoint x="350" y="260" as="sourcePoint" />
            <mxPoint x="400" y="210" as="targetPoint" />
          </mxGeometry>
        </mxCell>
        <mxCell id="9-SXumL6C1ejnJ-Qdys8-15" value="Get Texture Data" style="text;html=1;strokeColor=none;fillColor=none;align=center;verticalAlign=middle;whiteSpace=wrap;rounded=0;" vertex="1" parent="1">
          <mxGeometry x="327.5" y="210" width="86" height="30" as="geometry" />
        </mxCell>
        <mxCell id="9-SXumL6C1ejnJ-Qdys8-16" value="" style="endArrow=classic;html=1;rounded=0;exitX=0.25;exitY=1;exitDx=0;exitDy=0;entryX=0.25;entryY=0;entryDx=0;entryDy=0;" edge="1" parent="1" source="9-SXumL6C1ejnJ-Qdys8-1" target="9-SXumL6C1ejnJ-Qdys8-13">
          <mxGeometry width="50" height="50" relative="1" as="geometry">
            <mxPoint x="110" y="300" as="sourcePoint" />
            <mxPoint x="160" y="250" as="targetPoint" />
          </mxGeometry>
        </mxCell>
        <mxCell id="9-SXumL6C1ejnJ-Qdys8-17" value="Create and init with Texture Data + .OBJ data" style="text;html=1;strokeColor=none;fillColor=none;align=center;verticalAlign=middle;whiteSpace=wrap;rounded=0;" vertex="1" parent="1">
          <mxGeometry x="200" y="270" width="180" height="30" as="geometry" />
        </mxCell>
      </root>
    </mxGraphModel>
  </diagram>
</mxfile>
